<svg xmlns="http://www.w3.org/2000/svg" viewBox="0 0 512 512">
  <defs>
    <linearGradient id="grad" x1="0%" y1="0%" x2="100%" y2="100%">
      <stop offset="0%" style="stop-color:#4f46e5"/>
      <stop offset="100%" style="stop-color:#ec4899"/>
    </linearGradient>
  </defs>
  <rect width="512" height="512" rx="102" fill="url(#grad)"/>
  <g fill="white">
    <rect x="80" y="80" width="120" height="120" rx="20"/>
    <rect x="312" y="80" width="120" height="120" rx="20"/>
    <rect x="80" y="312" width="120" height="120" rx="20"/>
    <rect x="120" y="120" width="40" height="40" rx="8" fill="#4f46e5"/>
    <rect x="352" y="120" width="40" height="40" rx="8" fill="#4f46e5"/>
    <rect x="120" y="352" width="40" height="40" rx="8" fill="#4f46e5"/>
    <rect x="240" y="80" width="32" height="32" rx="4"/>
    <rect x="240" y="144" width="32" height="32" rx="4"/>
    <rect x="80" y="240" width="32" height="32" rx="4"/>
    <rect x="144" y="240" width="32" height="32" rx="4"/>
    <rect x="240" y="240" width="32" height="32" rx="4"/>
    <rect x="304" y="240" width="32" height="32" rx="4"/>
    <rect x="240" y="304" width="32" height="32" rx="4"/>
    <rect x="304" y="304" width="32" height="32" rx="4"/>
    <rect x="368" y="304" width="32" height="32" rx="4"/>
    <rect x="304" y="368" width="32" height="32" rx="4"/>
    <rect x="368" y="368" width="64" height="64" rx="12"/>
  </g>
</svg>
